HIERARCHY
ROOT Hips
{
	OFFSET 0.000000 0.000000 0.000000
	CHANNELS 6 Xposition Yposition Zposition Zrotation Yrotation Xrotation 
	JOINT LHipJoint
	{
		OFFSET 0.000000 0.000000 0.000000
		CHANNELS 3 Zrotation Yrotation Xrotation
		JOINT LeftUpLeg
		{
			OFFSET 1.363060 -1.794630 0.839290
			CHANNELS 3 Zrotation Yrotation Xrotation
			JOINT LeftLeg
			{
				OFFSET 2.448110 -6.726130 0.000000
				CHANNELS 3 Zrotation Yrotation Xrotation
				JOINT LeftFoot
				{
					OFFSET 2.562200 -7.039590 0.000000
					CHANNELS 3 Zrotation Yrotation Xrotation
					JOINT LeftToeBase
					{
						OFFSET 0.157640 -0.433110 2.322550
						CHANNELS 3 Zrotation Yrotation Xrotation
						End Site
						{
							OFFSET 0.000000 0.000000 0.000000
						}
					}
				}
			}
		}
	}
	JOINT RHipJoint
	{
		OFFSET 0.000000 0.000000 0.000000
		CHANNELS 3 Zrotation Yrotation Xrotation
		JOINT RightUpLeg
		{
			OFFSET -1.305520 -1.794630 0.839290
			CHANNELS 3 Zrotation Yrotation Xrotation
			JOINT RightLeg
			{
				OFFSET -2.542530 -6.985550 0.000000
				CHANNELS 3 Zrotation Yrotation Xrotation
				JOINT RightFoot
				{
					OFFSET -2.568260 -7.056230 0.000000
					CHANNELS 3 Zrotation Yrotation Xrotation
					JOINT RightToeBase
					{
						OFFSET -0.164730 -0.452590 2.363150
						CHANNELS 3 Zrotation Yrotation Xrotation
						End Site
						{
							OFFSET 0.000000 0.000000 0.000000
						}
					}
				}
			}
		}
	}
	JOINT LowerBack
	{
		OFFSET 0.000000 0.000000 0.000000
		CHANNELS 3 Zrotation Yrotation Xrotation
		JOINT Spine
		{
			OFFSET 0.028270 2.035590 -0.193380
			CHANNELS 3 Zrotation Yrotation Xrotation
			JOINT Spine1
			{
				OFFSET 0.056720 2.048850 -0.042750
				CHANNELS 3 Zrotation Yrotation Xrotation
				JOINT Neck
				{
					OFFSET 0.000000 0.000000 0.000000
					CHANNELS 3 Zrotation Yrotation Xrotation
					JOINT Neck1
					{
						OFFSET -0.054170 1.746240 0.172020
						CHANNELS 3 Zrotation Yrotation Xrotation
						JOINT Head
						{
							OFFSET 0.104070 1.761360 -0.123970
							CHANNELS 3 Zrotation Yrotation Xrotation
							End Site
							{
								OFFSET 0.000000 0.000000 0.000000
							}
						}
					}
				}
				JOINT LeftShoulder
				{
					OFFSET 0.000000 0.000000 0.000000
					CHANNELS 3 Zrotation Yrotation Xrotation
					JOINT LeftArm
					{
						OFFSET 3.362410 1.200890 -0.311210
						CHANNELS 3 Zrotation Yrotation Xrotation
						JOINT LeftForeArm
						{
							OFFSET 4.983000 -0.000000 -0.000000
							CHANNELS 3 Zrotation Yrotation Xrotation
							JOINT LeftHand
							{
								OFFSET 3.483560 -0.000000 -0.000000
								CHANNELS 3 Zrotation Yrotation Xrotation
								JOINT LeftFingerBase
								{
									OFFSET 0.000000 0.000000 0.000000
									CHANNELS 3 Zrotation Yrotation Xrotation
									JOINT LeftHandIndex1
									{
										OFFSET 0.715260 -0.000000 -0.000000
										CHANNELS 3 Zrotation Yrotation Xrotation
										End Site
										{
											OFFSET 0.000000 0.000000 0.000000
										}
									}
								}
								JOINT LThumb
								{
									OFFSET 0.000000 0.000000 0.000000
									CHANNELS 3 Zrotation Yrotation Xrotation
									End Site
									{
										OFFSET 0.000000 0.000000 0.000000
									}
								}
							}
						}
					}
				}
				JOINT RightShoulder
				{
					OFFSET 0.000000 0.000000 0.000000
					CHANNELS 3 Zrotation Yrotation Xrotation
					JOINT RightArm
					{
						OFFSET -3.136600 1.374050 -0.404650
						CHANNELS 3 Zrotation Yrotation Xrotation
						JOINT RightForeArm
						{
							OFFSET -5.241900 -0.000000 -0.000000
							CHANNELS 3 Zrotation Yrotation Xrotation
							JOINT RightHand
							{
								OFFSET -3.444170 -0.000000 -0.000000
								CHANNELS 3 Zrotation Yrotation Xrotation
								JOINT RightFingerBase
								{
									OFFSET 0.000000 0.000000 0.000000
									CHANNELS 3 Zrotation Yrotation Xrotation
									JOINT RightHandIndex1
									{
										OFFSET -0.622530 -0.000000 -0.000000
										CHANNELS 3 Zrotation Yrotation Xrotation
										End Site
										{
											OFFSET 0.000000 0.000000 0.000000
										}
									}
								}
								JOINT RThumb
								{
									OFFSET 0.000000 0.000000 0.000000
									CHANNELS 3 Zrotation Yrotation Xrotation
									End Site
									{
										OFFSET 0.000000 0.000000 0.000000
									}
								}
							}
						}
					}
				}
			}
		}
	}
}
MOTION
Frames: 10
Frame Time: 0.008333
2.134503 16.275405 0.009454 65.096649 84.251556 116.814939 -9.563531 -2.972409 -0.975140 -10.407720 -10.592213 -74.391613 -0.496256 3.561433 59.822049 4.389547 16.600570 -21.502691 -3.267700 -0.000000 -17.771800 6.625234 0.500706 -0.587586 12.100191 6.089018 -69.802103 2.817560 -3.180928 43.973662 -3.595574 -6.684414 -25.445600 2.187600 0.000000 -2.434900 6.326793 -0.004533 6.752376 1.228859 0.030313 -1.137835 -2.813501 -0.043212 -0.018188 6.633340 -8.223475 -5.788962 -1.158740 -0.072263 -0.223735 0.000000 0.000000 0.000000 4.953011 9.219456 2.037878 -74.162748 21.176351 26.474112 -0.399893 -74.939296 0.016469 -4.066503 3.864347 -0.134085 0.077933 0.155265 0.000000 0.000000 0.000000 0.000000 0.000000 0.000000 0.000000 4.012480 -3.465377 0.690151 58.036221 10.408387 7.593966 0.354118 80.317410 -0.042391 -8.037747 -0.100693 -0.014408 0.187975 -0.310643 0.000000 0.000000 0.000000 0.000000 0.000000 0.000000 0.000000 
2.269017 16.305272 0.022610 63.099098 84.203038 114.739143 -9.410640 -2.917947 -0.736618 -10.186270 -11.161490 -75.507198 -0.618067 3.480211 58.307362 4.353551 16.010570 -21.482824 -3.123400 0.000000 -18.455300 6.625168 0.542440 -0.779507 12.177209 5.836982 -68.668266 2.868321 -3.076715 43.369739 -3.551318 -6.555016 -25.439106 2.176900 0.000000 -3.114800 5.977670 0.066735 6.757751 1.159687 0.105354 -1.142409 -2.746813 0.034949 -0.028053 6.526608 -8.243162 -5.763980 -1.117731 -0.069628 -0.214611 0.000000 0.000000 0.000000 5.023113 9.279751 2.009227 -74.250600 21.260495 26.614270 -0.379057 -75.649453 0.016837 -4.113908 3.734380 -0.130892 0.081021 0.158495 0.000000 0.000000 0.000000 0.000000 0.000000 0.000000 0.000000 3.686920 -3.424117 0.687319 57.612467 10.680116 7.580791 0.334219 80.859322 -0.044124 -8.254487 -0.273398 -0.002003 0.193099 -0.310606 0.000000 0.000000 0.000000 0.000000 0.000000 0.000000 0.000000 
2.405431 16.333157 0.034950 61.052586 84.163767 112.566708 -9.263799 -2.843735 -0.495208 -9.983493 -11.673323 -76.524546 -0.756488 3.386318 56.662076 4.308656 15.386589 -21.454524 -2.975700 0.000000 -19.127600 6.629432 0.584894 -0.977513 12.264331 5.576512 -67.492349 2.913441 -2.977781 42.817214 -3.507348 -6.431203 -25.443347 2.169800 -0.000000 -3.730500 5.636718 0.134219 6.759959 1.091800 0.176786 -1.148569 -2.685445 0.109446 -0.035591 6.418949 -8.274385 -5.747201 -1.077005 -0.066960 -0.206669 0.000000 0.000000 0.000000 5.100817 9.354520 1.982293 -74.323164 21.366610 26.741324 -0.358955 -76.330693 0.016963 -4.102489 3.637896 -0.126998 0.082929 0.161012 0.000000 0.000000 0.000000 0.000000 0.000000 0.000000 0.000000 3.356557 -3.395400 0.680744 57.216021 10.942329 7.589129 0.313307 81.418156 -0.045877 -8.470340 -0.438220 0.010403 0.198213 -0.310687 0.000000 0.000000 0.000000 0.000000 0.000000 0.000000 0.000000 
2.543884 16.358843 0.046545 59.015427 84.135201 110.358964 -9.122709 -2.751233 -0.250270 -9.808417 -12.129509 -77.448933 -0.911135 3.279646 54.894428 4.253799 14.730206 -21.405453 -2.821900 0.000000 -19.805000 6.639862 0.626907 -1.180054 12.360756 5.305473 -66.282497 2.952661 -2.885746 42.321571 -3.463990 -6.315306 -25.455346 2.165700 0.000000 -4.304900 5.307406 0.196407 6.755982 1.026199 0.243120 -1.156980 -2.629436 0.178773 -0.040423 6.311719 -8.319104 -5.739052 -1.036134 -0.064220 -0.199983 0.000000 0.000000 0.000000 5.189119 9.443166 1.957042 -74.380261 21.500502 26.854558 -0.339653 -76.984695 0.016859 -4.037099 3.573485 -0.122598 0.083707 0.162807 0.000000 0.000000 0.000000 0.000000 0.000000 0.000000 0.000000 3.021150 -3.381697 0.670444 56.849996 11.197588 7.626575 0.291467 81.993764 -0.047594 -8.677594 -0.593865 0.022709 0.203225 -0.310888 0.000000 0.000000 0.000000 0.000000 0.000000 0.000000 0.000000 
2.684490 16.382228 0.057425 57.044941 84.116696 108.175460 -8.987072 -2.641623 -0.001629 -9.674152 -12.533093 -78.282643 -1.082766 3.159899 53.010070 4.188370 14.043324 -21.330320 -2.661900 -0.000000 -20.423800 6.658383 0.667606 -1.386604 12.465033 5.017435 -65.048129 2.985976 -2.802895 41.890408 -3.420298 -6.205941 -25.469209 2.163100 0.000000 -4.872301 4.991168 0.251832 6.744374 0.963278 0.302941 -1.168114 -2.578881 0.241501 -0.042915 6.207271 -8.378112 -5.739415 -0.995112 -0.061410 -0.194506 0.000000 0.000000 0.000000 5.289940 9.541065 1.933391 -74.422773 21.669800 26.949892 -0.321202 -77.613773 0.016553 -3.925411 3.534721 -0.117898 0.083480 0.163950 0.000000 0.000000 0.000000 0.000000 0.000000 0.000000 0.000000 2.683462 -3.384269 0.657004 56.512725 11.446242 7.697511 0.268679 82.588411 -0.049230 -8.868343 -0.740122 0.034717 0.208043 -0.311199 0.000000 0.000000 0.000000 0.000000 0.000000 0.000000 0.000000 
2.827348 16.403152 0.067625 55.176689 84.109320 106.054865 -8.857526 -2.516454 0.250613 -9.593335 -12.885603 -79.028928 -1.271503 3.026969 51.013565 4.111068 13.330416 -21.208006 -2.491899 0.000000 -21.065900 6.686251 0.705800 -1.595820 12.574444 4.710594 -63.800156 3.012332 -2.731282 41.532651 -3.375224 -6.104323 -25.471616 2.159600 -0.000001 -5.537500 4.688796 0.299626 6.723339 0.903440 0.355393 -1.182255 -2.533202 0.296761 -0.042613 6.106944 -8.454400 -5.749856 -0.953232 -0.058449 -0.190699 0.000000 0.000000 0.000000 5.405181 9.649683 1.911607 -74.449584 21.876365 27.029772 -0.303654 -78.221422 0.016090 -3.779736 3.518133 -0.112995 0.082438 0.164470 0.000000 0.000000 0.000000 0.000000 0.000000 0.000000 0.000000 2.342600 -3.405864 0.640956 56.205184 11.691439 7.808209 0.245021 83.200654 -0.050732 -9.034588 -0.876089 0.046326 0.212565 -0.311620 0.000000 0.000000 0.000000 0.000000 0.000000 0.000000 0.000000 
2.972555 16.421601 0.077181 53.424462 84.111460 104.012769 -8.734549 -2.376669 0.505328 -9.581979 -13.189114 -79.682619 -1.478947 2.879924 48.904452 4.021832 12.597594 -21.032355 -2.312900 0.000000 -21.694200 6.724580 0.741110 -1.808249 12.687031 4.377951 -62.547770 3.031909 -2.673150 41.257216 -3.326570 -6.004915 -25.454150 2.152300 -0.000000 -6.335700 4.399207 0.339519 6.694424 0.846413 0.400274 -1.199188 -2.492230 0.344342 -0.040450 6.012718 -8.547525 -5.770446 -0.910546 -0.055332 -0.188675 0.000000 0.000000 0.000000 5.534927 9.764244 1.891912 -74.461528 22.125506 27.092008 -0.287011 -78.810427 0.015521 -3.613227 3.515431 -0.107990 0.080831 0.164479 0.000000 0.000000 0.000000 0.000000 0.000000 0.000000 0.000000 2.001542 -3.445604 0.623329 55.923976 11.932536 7.960025 0.220393 83.832722 -0.052055 -9.169121 -1.001271 0.057336 0.216697 -0.312157 0.000000 0.000000 0.000000 0.000000 0.000000 0.000000 0.000000 
3.120182 16.437564 0.086081 51.768551 84.122652 102.031147 -8.619014 -2.223569 0.760998 -9.653439 -13.443195 -80.238094 -1.706181 2.717627 46.680713 3.920804 11.854370 -20.790875 -2.125100 -0.000000 -22.412500 6.774222 0.773104 -2.023925 12.800265 4.017144 -61.298547 3.043708 -2.630182 41.071842 -3.271386 -5.904114 -25.395561 2.137000 -0.000000 -7.428799 4.120925 0.372133 6.659294 0.791947 0.438246 -1.218509 -2.455347 0.384901 -0.036875 5.925103 -8.658100 -5.802350 -0.866577 -0.051994 -0.188874 0.000000 0.000000 0.000000 5.678222 9.884804 1.874732 -74.457600 22.418298 27.138736 -0.271236 -79.385104 0.014904 -3.441102 3.520994 -0.103085 0.078938 0.164052 0.000000 0.000000 0.000000 0.000000 0.000000 0.000000 0.000000 1.659567 -3.502905 0.605055 55.668316 12.169831 8.154827 0.194743 84.484132 -0.053153 -9.264555 -1.115272 0.067247 0.220322 -0.312817 0.000000 0.000000 0.000000 0.000000 0.000000 0.000000 0.000000 
3.270247 16.451199 0.094250 50.170379 84.140540 100.070012 -8.510956 -2.058629 1.015044 -9.820305 -13.647839 -80.680556 -1.954956 2.537304 44.335324 3.809927 11.112688 -20.488743 -1.933400 -0.000000 -23.197100 6.835475 0.802382 -2.245152 12.913354 3.620555 -60.054543 3.049112 -2.603433 40.981166 -3.207193 -5.790751 -25.296540 2.111700 -0.000000 -8.760000 3.852197 0.398926 6.623567 0.739516 0.470887 -1.239254 -2.422435 0.420018 -0.033972 5.844210 -8.782999 -5.844724 -0.821566 -0.048452 -0.191230 0.000000 0.000000 0.000000 5.832723 10.003692 1.860302 -74.440011 22.760712 27.166320 -0.256251 -79.948221 0.014296 -3.277258 3.525753 -0.098381 0.077065 0.163321 0.000000 0.000000 0.000000 0.000000 0.000000 0.000000 0.000000 1.318257 -3.573160 0.587413 55.434062 12.398765 8.388334 0.167843 85.157781 -0.053988 -9.314997 -1.217712 0.076158 0.223335 -0.313619 0.000000 0.000000 0.000000 0.000000 0.000000 0.000000 0.000000 
3.422797 16.462529 0.101582 48.546946 84.164699 98.046911 -8.410746 -1.884243 1.264656 -10.088297 -13.798530 -80.998519 -2.225580 2.336073 41.863417 3.690948 10.385325 -20.125355 -1.740899 -0.000000 -24.138800 6.908237 0.829070 -2.472694 13.026249 3.188877 -58.815659 3.048139 -2.592632 40.985545 -3.131676 -5.658383 -25.145776 2.073500 0.000000 -10.384300 3.592610 0.422206 6.591756 0.689086 0.500566 -1.260317 -2.392966 0.452063 -0.032473 5.768606 -8.920784 -5.898104 -0.775128 -0.044654 -0.196089 0.000000 0.000000 0.000000 5.995302 10.122927 1.849056 -74.408062 23.151094 27.179435 -0.241960 -80.502712 0.013747 -3.134536 3.526757 -0.094177 0.075471 0.162333 0.000000 0.000000 0.000000 0.000000 0.000000 0.000000 0.000000 0.975089 -3.653068 0.570973 55.221644 12.618297 8.659097 0.139583 85.852504 -0.054528 -9.315951 -1.308109 0.083670 0.225629 -0.314583 0.000000 0.000000 0.000000 0.000000 0.000000 0.000000 0.000000 
